<?xml version="1.0" standalone="no"?>
<!DOCTYPE svg PUBLIC "-//W3C//DTD SVG 20010904//EN"
 "http://www.w3.org/TR/2001/REC-SVG-20010904/DTD/svg10.dtd">
<svg version="1.0" xmlns="http://www.w3.org/2000/svg"
 width="550.000000pt" height="550.000000pt" viewBox="0 0 550.000000 550.000000"
 preserveAspectRatio="xMidYMid meet">

<g transform="translate(0.000000,550.000000) scale(0.100000,-0.100000)"
fill="#6154D4" stroke="none">
<path d="M3825 5231 c-28 -13 -405 -384 -1222 -1202 -1063 -1065 -1183 -1188
-1193 -1227 -12 -45 -6 -101 16 -142 7 -14 543 -555 1191 -1202 835 -834 1189
-1182 1215 -1193 51 -21 104 -19 155 6 82 40 126 133 103 220 -10 40 -108 141
-1118 1152 l-1107 1107 1107 1108 c1010 1010 1108 1111 1118 1151 40 154 -121
289 -265 222z"/>
</g>
</svg>
