<?xml version="1.0" standalone="no"?>
<!DOCTYPE svg PUBLIC "-//W3C//DTD SVG 20010904//EN"
 "http://www.w3.org/TR/2001/REC-SVG-20010904/DTD/svg10.dtd">
<svg version="1.0" xmlns="http://www.w3.org/2000/svg"
 width="512.000000pt" height="512.000000pt" viewBox="0 0 512.000000 512.000000"
 preserveAspectRatio="xMidYMid meet">

<g transform="translate(0.000000,512.000000) scale(0.100000,-0.100000)"
fill="#6154D4" stroke="none">
<path d="M2365 5114 c-222 -22 -430 -65 -604 -123 -662 -222 -1186 -678 -1495
-1301 -123 -249 -198 -489 -243 -780 -21 -142 -25 -528 -5 -665 42 -293 119
-550 242 -802 l78 -162 -165 -508 c-185 -567 -192 -600 -144 -676 32 -51 87
-86 147 -93 55 -6 12 -19 687 199 l419 135 149 -73 c392 -192 796 -278 1224
-261 373 14 709 100 1044 267 265 132 470 280 673 485 210 213 350 408 477
665 276 556 342 1168 191 1769 -86 345 -274 718 -495 985 -414 501 -962 813
-1605 916 -120 19 -473 33 -575 23z m438 -409 c941 -110 1690 -801 1876 -1730
201 -1010 -355 -2034 -1314 -2418 -617 -247 -1286 -201 -1878 129 -111 63
-127 68 -177 67 -41 0 -147 -31 -425 -121 -203 -66 -371 -120 -372 -119 -1 1
53 169 119 372 90 278 121 384 121 425 1 50 -4 66 -67 177 -182 327 -268 630
-283 998 -24 595 205 1176 631 1600 367 366 812 573 1346 628 92 10 308 5 423
-8z"/>
<path d="M1471 2793 c-88 -31 -161 -136 -161 -233 0 -60 30 -130 75 -175 98
-98 252 -98 350 0 188 188 -12 497 -264 408z"/>
<path d="M2471 2793 c-88 -31 -161 -136 -161 -233 0 -132 118 -250 250 -250
60 0 130 30 175 75 188 188 -12 497 -264 408z"/>
<path d="M3471 2793 c-88 -31 -161 -136 -161 -233 0 -132 118 -250 250 -250
60 0 130 30 175 75 188 188 -12 497 -264 408z"/>
</g>
</svg>
