<?xml version="1.0" standalone="no"?>
<!DOCTYPE svg PUBLIC "-//W3C//DTD SVG 20010904//EN"
 "http://www.w3.org/TR/2001/REC-SVG-20010904/DTD/svg10.dtd">
<svg version="1.0" xmlns="http://www.w3.org/2000/svg"
 width="512.000000pt" height="512.000000pt" viewBox="0 0 512.000000 512.000000"
 preserveAspectRatio="xMidYMid meet">

<g transform="translate(0.000000,512.000000) scale(0.100000,-0.100000)"
fill="#6154D4" stroke="none">
<path d="M2480 5110 c-56 -10 -145 -43 -184 -69 -114 -76 -200 -211 -219 -345
-34 -237 111 -464 346 -540 15 -5 17 -20 17 -125 l0 -120 -667 -3 c-746 -4
-713 -2 -868 -77 -177 -87 -309 -259 -349 -456 l-13 -60 -82 -7 c-103 -8 -165
-29 -239 -78 -91 -61 -147 -142 -177 -257 -22 -86 -22 -1128 1 -1223 25 -107
90 -200 182 -259 71 -45 127 -63 226 -70 l89 -6 14 -70 c8 -38 33 -108 55
-155 75 -156 243 -297 414 -347 51 -15 124 -18 528 -22 l470 -6 222 -385 c130
-225 233 -393 248 -405 35 -26 97 -26 132 0 15 12 119 182 248 405 l223 385
469 6 c521 6 522 6 659 77 107 55 230 182 283 292 22 47 47 117 55 155 l14 70
89 6 c49 4 109 14 134 23 143 53 247 175 279 324 7 35 11 236 11 600 0 454 -3
558 -15 605 -30 115 -86 196 -177 257 -74 49 -136 70 -239 78 l-82 7 -13 60
c-41 202 -172 370 -359 460 -49 24 -112 49 -140 56 -36 9 -231 13 -717 16
l-668 4 0 120 c0 105 2 120 18 125 167 55 293 188 337 359 68 266 -120 550
-396 595 -72 11 -94 11 -159 0z m1615 -1479 c134 -66 223 -188 245 -336 13
-94 13 -1776 0 -1869 -27 -186 -175 -336 -360 -366 -38 -6 -258 -10 -523 -10
-373 0 -463 -3 -485 -14 -20 -10 -77 -101 -217 -345 -104 -182 -192 -331 -195
-330 -3 0 -90 148 -195 330 -140 245 -197 335 -217 345 -22 11 -112 14 -485
14 -273 0 -484 4 -523 11 -186 30 -333 179 -360 366 -12 85 -13 1770 -1 1865
22 168 137 307 298 358 56 18 114 19 1503 17 l1445 -2 70 -34z"/>
<path d="M1480 3031 c-76 -24 -96 -37 -158 -95 -207 -196 -153 -537 105 -659
63 -30 76 -32 173 -32 97 0 110 2 173 32 164 78 260 258 228 431 -13 69 -55
160 -94 204 -107 118 -280 166 -427 119z"/>
<path d="M3396 3031 c-148 -49 -248 -165 -277 -322 -32 -174 63 -354 228 -432
63 -30 76 -32 173 -32 97 0 110 2 173 32 262 124 312 467 97 666 -75 70 -146
98 -255 103 -60 3 -95 -1 -139 -15z"/>
<path d="M1944 1966 c-29 -29 -34 -41 -34 -79 0 -38 8 -58 50 -121 206 -307
608 -408 940 -235 99 51 194 138 260 235 42 63 50 83 50 121 0 38 -5 50 -34
79 -28 28 -42 34 -76 34 -58 0 -74 -11 -126 -90 -98 -149 -243 -230 -414 -230
-171 0 -316 81 -414 230 -52 79 -68 90 -126 90 -34 0 -48 -6 -76 -34z"/>
</g>
</svg>
